# xmcd
#
# Track frame offsets: 
#        150
#        14242
#        28565
#        39888
#        56995
#        71812
#        85760
#        103032
#        116711
#        128460
#        144388
#        161217
#        177033
#        189288
#        202853
#        218720
#        235134
#        250413
#        271705
#        285709
#
# Disc length: 3994 seconds
#
# Revision: 0
# Processed by: cddbd v1.5.2PL0 Copyright (c) Steve Scherf et al.
# Submitted via: ExactAudioCopy v0.99pb3
#
DISCID=1b0f9814
DTITLE=My Music - Karnawa£ 2008 The Best Cd1
DYEAR=1900
DGENRE=
TTITLE0=Groove Coverage - Because I Love You 
TTITLE1=Gummy Bear - Cho Ka Ka O
TTITLE2=Uniting Nations - Do It Yourself
TTITLE3=Trafassi vs. Dj  Maurice - Pum Pum
TTITLE4=Supafly Inc. - Electric Avenue
TTITLE5=David Tavare Feat. 2 Eivissa - Hot Summer Night ( Oh La La La)
TTITLE6=Bum - Rosa
TTITLE7=Dave Amstrong - Redroche - Love Has Gone
TTITLE8=Andrew Spencer And The Vamprockers - Zombie
TTITLE9=The Disco Boys - What You Want
TTITLE10=The Angry Kids vs. A Flock Of Seagulls - I Run (So Far Away)
TTITLE11=Twisted Society - Killer
TTITLE12=DJ Daz - Jump
TTITLE13=Johnny Crockett - Theme From Shout
TTITLE14=Scooter - And No Matches
TTITLE15=Kalwi_Remi - New Sound
TTITLE16=ZDN Alan Bassky Jakub Kotowski - Tylko ty i noc
TTITLE17=Forseco - Egyptian Night
TTITLE18=Love Shakers - One Love
TTITLE19=Ducky Duck  - Duck Duck
EXTD=
EXTT0=
EXTT1=
EXTT2=
EXTT3=
EXTT4=
EXTT5=
EXTT6=
EXTT7=
EXTT8=
EXTT9=
EXTT10=
EXTT11=
EXTT12=
EXTT13=
EXTT14=
EXTT15=
EXTT16=
EXTT17=
EXTT18=
EXTT19=
PLAYORDER=
